# xmcd
#
# Track frame offsets: 
#        150
#        26454
#        45105
#
# Disc length: 840 seconds
#
# Revision: 0
# Processed by: cddbd v1.5.2PL0 Copyright (c) Steve Scherf et al.
# Submitted via: ExactAudioCopy v1.0b3
#
DISCID=13034603
DTITLE=宮野真守 - …君へ
DYEAR=1900
DGENRE=Alt. Rock
TTITLE0=…君へ
TTITLE1=Beautiful smile
TTITLE2=FIRST GATE
EXTD=
EXTT0=
EXTT1=
EXTT2=
PLAYORDER=
